<?xml version="1.0"?>
<svg xmlns="http://www.w3.org/2000/svg" viewBox="0 0 64 64" width="512px" height="512px" class=""><g><g id="Storage"><rect x="5" y="41" width="18" height="20" style="fill:#ccb597" data-original="#CCB597"/><polygon points="16 47 16 41 14 41 12 41 12 47 16 47" style="fill:#ffaf46" data-original="#FFAF46"/><rect x="23" y="41" width="18" height="20" style="fill:#e5cbaa" data-original="#E5CBAA"/><polygon points="30 47 34 47 34 41 32 41 30 41 30 47" style="fill:#ffaf46" data-original="#FFAF46"/><rect x="41" y="41" width="18" height="20" style="fill:#ffe2bd" data-original="#FFE2BD" class=""/><polygon points="48 47 52 47 52 41 50 41 48 41 48 47" style="fill:#ffaf46" data-original="#FFAF46"/><rect x="14" y="21" width="18" height="20" style="fill:#ffe2bd" data-original="#FFE2BD" class=""/><polygon points="25 27 25 21 23 21 21 21 21 27 25 27" style="fill:#ffaf46" data-original="#FFAF46"/><rect x="32" y="21" width="18" height="20" style="fill:#ffe5c3" data-original="#FFE5C3"/><polygon points="39 27 43 27 43 21 41 21 39 21 39 27" style="fill:#ffaf46" data-original="#FFAF46"/><rect x="23" y="3" width="18" height="18" style="fill:#ffe5c3" data-original="#FFE5C3"/><rect x="30" y="3" width="4" height="4" style="fill:#ffaf46" data-original="#FFAF46"/><path d="M44,61H59V47C59,54.738,52.291,61,44,61Z" style="fill:#ffdaaa" data-original="#FFDAAA" class=""/><path d="M26,61H41V47C41,54.738,34.291,61,26,61Z" style="fill:#ceb799" data-original="#CEB799"/><path d="M8,61H23V47C23,54.738,16.291,61,8,61Z" style="fill:#b7a288" data-original="#B7A288"/><path d="M17,41H32V27C32,34.738,25.291,41,17,41Z" style="fill:#ffdaaa" data-original="#FFDAAA" class=""/><path d="M35,41H50V27C50,34.738,43.291,41,35,41Z" style="fill:#ffddb2" data-original="#FFDDB2"/><path d="M26,21H41V7C41,14.738,34.291,21,26,21Z" style="fill:#ffe1b9" data-original="#FFE1B9"/><path d="M10,57H8a1,1,0,0,0,0,2h2a1,1,0,0,0,0-2Z" data-original="#000000" class="active-path" style="fill:#000000"/><path d="M10,54H8a1,1,0,0,0,0,2h2a1,1,0,0,0,0-2Z" data-original="#000000" class="active-path" style="fill:#000000"/><path d="M28,57H26a1,1,0,0,0,0,2h2a1,1,0,0,0,0-2Z" data-original="#000000" class="active-path" style="fill:#000000"/><path d="M28,54H26a1,1,0,0,0,0,2h2a1,1,0,0,0,0-2Z" data-original="#000000" class="active-path" style="fill:#000000"/><path d="M46,57H44a1,1,0,0,0,0,2h2a1,1,0,0,0,0-2Z" data-original="#000000" class="active-path" style="fill:#000000"/><path d="M46,54H44a1,1,0,0,0,0,2h2a1,1,0,0,0,0-2Z" data-original="#000000" class="active-path" style="fill:#000000"/><path d="M59,40H51V21a1,1,0,0,0-1-1H42V3a1,1,0,0,0-1-1H23a1,1,0,0,0-1,1V20H14a1,1,0,0,0-1,1V40H5a1,1,0,0,0-1,1V61a1,1,0,0,0,1,1H59a1,1,0,0,0,1-1V41A1,1,0,0,0,59,40ZM49,42h2v4H49Zm0-2H33V22h5v5a1,1,0,0,0,1,1h4a1,1,0,0,0,1-1V22h5ZM31,42h2v4H31ZM42,22v4H40V22ZM33,4V6H31V4ZM24,4h5V7a1,1,0,0,0,1,1h4a1,1,0,0,0,1-1V4h5V20H24Zm0,18v4H22V22Zm-9,0h5v5a1,1,0,0,0,1,1h4a1,1,0,0,0,1-1V22h5V40H15Zm0,20v4H13V42ZM6,42h5v5a1,1,0,0,0,1,1h4a1,1,0,0,0,1-1V42h5V60H6Zm18,0h5v5a1,1,0,0,0,1,1h4a1,1,0,0,0,1-1V42h5V60H24ZM58,60H42V42h5v5a1,1,0,0,0,1,1h4a1,1,0,0,0,1-1V42h5Z" data-original="#000000" class="active-path" style="fill:#000000"/><path d="M17,39h2a1,1,0,0,0,0-2H17a1,1,0,0,0,0,2Z" data-original="#000000" class="active-path" style="fill:#000000"/><path d="M17,36h2a1,1,0,0,0,0-2H17a1,1,0,0,0,0,2Z" data-original="#000000" class="active-path" style="fill:#000000"/><path d="M37,37H35a1,1,0,0,0,0,2h2a1,1,0,0,0,0-2Z" data-original="#000000" class="active-path" style="fill:#000000"/><path d="M37,34H35a1,1,0,0,0,0,2h2a1,1,0,0,0,0-2Z" data-original="#000000" class="active-path" style="fill:#000000"/><path d="M26,16h2a1,1,0,0,0,0-2H26a1,1,0,0,0,0,2Z" data-original="#000000" class="active-path" style="fill:#000000"/><path d="M26,19h2a1,1,0,0,0,0-2H26a1,1,0,0,0,0,2Z" data-original="#000000" class="active-path" style="fill:#000000"/></g></g> </svg>
