<?xml version="1.0" encoding="UTF-8"?>
<svg width="161px" height="71px" viewBox="0 0 161 71" version="1.1" xmlns="http://www.w3.org/2000/svg" xmlns:xlink="http://www.w3.org/1999/xlink">
    <g id="New-LogiTrack-Mobile-Application." stroke="none" stroke-width="1" fill="none" fill-rule="evenodd">
        <g id="Artboard" transform="translate(-59.000000, -78.000000)" fill-rule="nonzero">
            <g id="Group" transform="translate(59.000000, 78.000000)">
                <path d="M20.7741935,35 L20.7741935,44.3870968 L2,44.3870968 L2,38.1290323 C2,36.4080645 3.40806452,35 5.12903226,35 L20.7741935,35 Z" id="Shape" fill="#DFB28B"></path>
                <path d="M48.7741935,38.1290323 L48.7741935,44.3870968 L30,44.3870968 L30,35 L45.6451613,35 C47.366129,35 48.7741935,36.4080645 48.7741935,38.1290323 Z" id="Shape" fill="#DFB28B"></path>
                <path d="M2,44 L2,65.9032258 C2,67.6241935 3.40806452,69.0322581 5.12903226,69.0322581 L45.8064516,69.0322581 C47.5274194,69.0322581 48.9354839,67.6241935 48.9354839,65.9032258 L48.9354839,44 L2,44 Z" id="Shape" fill="#ECC19C"></path>
                <polygon id="Shape" fill="#CF9E76" points="29.3870968 44.3870968 29.3870968 50.6451613 20 50.6451613 20 44.3870968 20 35 29.3870968 35"></polygon>
                <path d="M45.3709677,33 L4.69354839,33 C2.10583871,33 0,35.1058387 0,37.6935484 L0,65.8548387 C0,68.4425484 2.10583871,70.5483871 4.69354839,70.5483871 L45.3709677,70.5483871 C47.9586774,70.5483871 50.0645161,68.4425484 50.0645161,65.8548387 L50.0645161,37.6935484 C50.0645161,35.1058387 47.9586774,33 45.3709677,33 Z M46.9354839,37.6935484 L46.9354839,42.3870968 L31.2903226,42.3870968 L31.2903226,36.1290323 L45.3709677,36.1290323 C46.2345806,36.1290323 46.9354839,36.8299355 46.9354839,37.6935484 Z M21.9032258,36.1290323 L28.1612903,36.1290323 L28.1612903,48.6451613 L21.9032258,48.6451613 L21.9032258,36.1290323 Z M4.69354839,36.1290323 L18.7741935,36.1290323 L18.7741935,42.3870968 L3.12903226,42.3870968 L3.12903226,37.6935484 C3.12903226,36.8299355 3.82993548,36.1290323 4.69354839,36.1290323 Z M45.3709677,67.4193548 L4.69354839,67.4193548 C3.82993548,67.4193548 3.12903226,66.7184516 3.12903226,65.8548387 L3.12903226,45.516129 L18.7741935,45.516129 L18.7741935,51.7741935 L31.2903226,51.7741935 L31.2903226,45.516129 L46.9354839,45.516129 L46.9354839,65.8548387 C46.9354839,66.7184516 46.2345806,67.4193548 45.3709677,67.4193548 Z" id="Shape" fill="#000000"></path>
                <path d="M130.774194,35 L130.774194,44.3870968 L112,44.3870968 L112,38.1290323 C112,36.4080645 113.408065,35 115.129032,35 L130.774194,35 Z" id="Shape-Copy-5" fill="#DFB28B"></path>
                <path d="M158.774194,38.1290323 L158.774194,44.3870968 L140,44.3870968 L140,35 L155.645161,35 C157.366129,35 158.774194,36.4080645 158.774194,38.1290323 Z" id="Shape-Copy-4" fill="#DFB28B"></path>
                <path d="M112,44 L112,65.9032258 C112,67.6241935 113.408065,69.0322581 115.129032,69.0322581 L155.806452,69.0322581 C157.527419,69.0322581 158.935484,67.6241935 158.935484,65.9032258 L158.935484,44 L112,44 Z" id="Shape-Copy-3" fill="#ECC19C"></path>
                <polygon id="Shape-Copy-2" fill="#CF9E76" points="139.387097 44.3870968 139.387097 50.6451613 130 50.6451613 130 44.3870968 130 35 139.387097 35"></polygon>
                <path d="M155.370968,33 L114.693548,33 C112.105839,33 110,35.1058387 110,37.6935484 L110,65.8548387 C110,68.4425484 112.105839,70.5483871 114.693548,70.5483871 L155.370968,70.5483871 C157.958677,70.5483871 160.064516,68.4425484 160.064516,65.8548387 L160.064516,37.6935484 C160.064516,35.1058387 157.958677,33 155.370968,33 Z M156.935484,37.6935484 L156.935484,42.3870968 L141.290323,42.3870968 L141.290323,36.1290323 L155.370968,36.1290323 C156.234581,36.1290323 156.935484,36.8299355 156.935484,37.6935484 Z M131.903226,36.1290323 L138.16129,36.1290323 L138.16129,48.6451613 L131.903226,48.6451613 L131.903226,36.1290323 Z M114.693548,36.1290323 L128.774194,36.1290323 L128.774194,42.3870968 L113.129032,42.3870968 L113.129032,37.6935484 C113.129032,36.8299355 113.829935,36.1290323 114.693548,36.1290323 Z M155.370968,67.4193548 L114.693548,67.4193548 C113.829935,67.4193548 113.129032,66.7184516 113.129032,65.8548387 L113.129032,45.516129 L128.774194,45.516129 L128.774194,51.7741935 L141.290323,51.7741935 L141.290323,45.516129 L156.935484,45.516129 L156.935484,65.8548387 C156.935484,66.7184516 156.234581,67.4193548 155.370968,67.4193548 Z" id="Shape-Copy" fill="#000000"></path>
                <path d="M90.6508629,33.2451855 L85.910379,37.9856694 C79.5897339,33.1356694 75.0057016,21.8711532 75.0057016,9.77744355 C75.0057016,3.34728226 76.4137661,-2.73868548 78.9013468,-8.2301371 L73.4411855,-13.6902984 L89.0863468,-15.2548145 L87.5218306,0.390346774 L83.673121,-3.4583629 C82.12425,0.671959677 81.2637661,5.11518548 81.2637661,9.77744355 C81.2637661,20.1501855 85.4723145,29.5372823 90.6508629,33.2451855 Z" id="Shape" fill="#B4DD7F" transform="translate(82.046024, 11.365427) rotate(90.000000) translate(-82.046024, -11.365427) "></path>
                <path d="M82.8282823,9.77744355 C82.8282823,6.26510484 83.339879,2.7981371 84.35525,-0.564008065 L88.7515403,3.83228226 L90.8339113,-17.0008145 L70.0008145,-14.9184435 L77.03175,-7.88594355 C74.6474274,-2.26933065 73.4411855,3.66800806 73.4411855,9.77744355 C73.4411855,22.1089597 78.0705887,33.9429597 84.9591532,39.2263306 L86.0464919,40.0602177 L93.0602177,33.0464919 L91.5598468,31.9716694 C87.2230081,28.8645403 82.8282823,20.2424919 82.8282823,9.77744355 Z M85.8196371,35.8641855 C80.3219274,30.7998468 76.5702177,20.3504435 76.5702177,9.77744355 C76.5702177,3.75249194 77.8327823,-2.09097581 80.3187984,-7.59337903 L80.7646855,-8.57902419 L76.8815565,-12.4621532 L87.3403468,-13.50725 L86.2936855,-3.05002419 L83.0707823,-6.2713629 L82.2165565,-4.00125 C80.5456532,0.43258871 79.69925,5.06825 79.69925,9.77744355 C79.69925,19.2615403 83.1802984,28.6142177 88.3244274,33.3593952 L85.8196371,35.8641855 Z" id="Shape" fill="#000000" transform="translate(81.530516, 11.529702) rotate(90.000000) translate(-81.530516, -11.529702) "></path>
            </g>
        </g>
    </g>
</svg>