<?xml version="1.0" encoding="UTF-8"?>
<svg width="50px" height="30px" viewBox="0 0 50 30" version="1.1" xmlns="http://www.w3.org/2000/svg" xmlns:xlink="http://www.w3.org/1999/xlink">
    <g id="New-LogiTrack-Mobile-Application." stroke="none" stroke-width="1" fill="none" fill-rule="evenodd">
        <g id="1.-Login" transform="translate(-888.000000, -1051.000000)" fill="#FFFFFF" fill-rule="nonzero">
            <g id="Group-Copy" transform="translate(129.000000, 993.000000)">
                <g id="eye" transform="translate(759.000000, 51.000000)">
                    <g id="Group-3">
                        <path d="M24.9923313,7.07413088 C15.442229,7.07413088 6.78169734,12.2990798 0.391104294,20.7857873 C-0.130368098,21.4810838 -0.130368098,22.452454 0.391104294,23.1477505 C6.78169734,31.644683 15.442229,36.8696319 24.9923313,36.8696319 C34.5424335,36.8696319 43.2029652,31.644683 49.5935583,23.1579755 C50.1150307,22.4626789 50.1150307,21.4913088 49.5935583,20.7960123 C43.2029652,12.2990798 34.5424335,7.07413088 24.9923313,7.07413088 Z M25.6774029,32.4626789 C19.3379346,32.8614519 14.1027607,27.6365031 14.5015337,21.2868098 C14.8287321,16.051636 19.0720859,11.8082822 24.3072597,11.4810838 C30.646728,11.0823108 35.8819018,16.3072597 35.4831288,22.656953 C35.1457055,27.8819018 30.9023517,32.1252556 25.6774029,32.4626789 Z M25.3604294,27.6160532 C21.9452965,27.8307771 19.1232106,25.0189162 19.3481595,21.6037832 C19.5219836,18.7816973 21.8123722,16.5015337 24.6344581,16.3174847 C28.049591,16.1027607 30.8716769,18.9146217 30.646728,22.3297546 C30.4626789,25.1620654 28.1722904,27.442229 25.3604294,27.6160532 Z" id="Shape"></path>
                    </g>
                </g>
            </g>
        </g>
    </g>
</svg>