<?xml version="1.0" encoding="UTF-8"?>
<svg width="97px" height="97px" viewBox="0 0 97 97" version="1.1" xmlns="http://www.w3.org/2000/svg" xmlns:xlink="http://www.w3.org/1999/xlink">
    <g id="New-LogiTrack-Mobile-Application." stroke="none" stroke-width="1" fill="none" fill-rule="evenodd">
        <g id="2.-Dashboard" transform="translate(-623.000000, -473.000000)" fill-rule="nonzero">
            <g id="Group-3" transform="translate(52.000000, 427.000000)">
                <g id="job-1-copy" transform="translate(511.000000, 0.000000)">
                    <g id="Group">
                        <g id="link" transform="translate(60.000000, 46.000000)">
                            <path d="M91.2595703,5.74061914 C91.2027344,5.6837832 91.2027344,5.6837832 91.145709,5.62675781 C83.6437441,-1.87558594 70.5710996,-1.87558594 63.0691348,5.62675781 L34.5564395,34.1394531 C26.769916,41.9259766 26.769916,54.5433652 34.5564395,62.2732422 C34.6132754,62.3296992 34.6132754,62.3296992 34.6699219,62.3296992 C38.5351445,66.194543 43.5363281,68.0701289 48.5947266,68.0701289 C53.7101504,68.0701289 58.7685488,66.1378965 62.6902285,62.2730527 L91.145709,33.7603574 C94.9540957,30.009375 97,25.007623 97,19.7220703 C97,14.4365176 95.0109316,9.49160156 91.2595703,5.74061914 Z M83.1320313,25.7466797 L54.6193359,54.259375 C53.0281191,55.8509707 50.8683535,56.7033203 48.5947266,56.7033203 C46.378125,56.7033203 44.2751953,55.9076172 42.6839785,54.3164004 C42.6271426,54.3164004 42.6271426,54.3164004 42.5701172,54.2595645 C39.2734434,50.9064336 39.2169863,45.5070195 42.5701172,42.2103457 L71.0828125,13.6976504 C72.5605469,12.219916 74.7203125,11.3675664 77.1074219,11.3675664 C79.4945313,11.3675664 81.6542969,12.219916 83.1320313,13.6408145 C83.1888672,13.6976504 83.1888672,13.6976504 83.2458926,13.7546758 C84.8371094,15.4023496 85.6328125,17.4488223 85.6328125,19.7220703 C85.6328125,21.9955078 84.7802734,24.0984375 83.1320313,25.7466797 Z" id="Shape" fill="#4DBBEB"></path>
                            <g id="Group" transform="translate(57.214844, 58.162109)" fill="#159CE4">
                                <path d="M22.9522461,25.8139355 C22.225125,25.8139355 21.4980039,25.5363867 20.9430957,24.9812891 L12.9032734,16.9443086 C11.7932676,15.8343027 11.7932676,14.0358242 12.9032734,12.9258184 C14.0132793,11.8158125 15.8117578,11.8158125 16.9217637,12.9258184 L24.9615859,20.9627988 C26.0715918,22.0728047 26.0715918,23.8712832 24.9615859,24.9812891 C24.4064883,25.5363867 23.6793672,25.8139355 22.9522461,25.8139355 Z" id="Shape"></path>
                                <path d="M30.9892266,9.74016406 C30.6923535,9.74016406 30.3897969,9.69299023 30.090082,9.59314844 L18.0346113,5.57181641 C16.5470254,5.07507031 15.7422285,3.46547656 16.2389746,1.97789062 C16.7328789,0.490304687 18.3286426,-0.319986328 19.8329004,0.182253906 L31.8883711,4.20358594 C33.375957,4.70033203 34.1807539,6.30992578 33.6840078,7.79751172 C33.2871035,8.98803516 32.17975,9.74016406 30.9892266,9.74016406 Z" id="Shape"></path>
                                <path d="M6.87544336,33.8537578 C5.68491992,33.8537578 4.57756641,33.1016289 4.18066211,31.9111055 L0.162171875,19.8529824 C-0.334574219,18.3627441 0.470222656,16.7531504 1.95780859,16.2590566 C3.45373047,15.7651523 5.05498828,16.5671074 5.55173437,18.0546934 L9.57022461,30.1128164 C10.0669707,31.6030547 9.26217383,33.2126484 7.77458789,33.7067422 C7.4750625,33.806584 7.17250586,33.8537578 6.87544336,33.8537578 Z" id="Shape"></path>
                            </g>
                            <g id="Group" transform="translate(4.925781, 5.873047)" fill="#4DBBEB">
                                <path d="M18.9769512,21.8388301 C18.2498301,21.8388301 17.522709,21.5612813 16.9678008,21.0061836 L8.92797852,12.9692031 C7.81797266,11.8591973 7.81797266,10.0607187 8.92797852,8.95071289 C10.0381738,7.84070703 11.8364629,7.84070703 12.9466582,8.95071289 L20.9864805,16.9876934 C22.0964863,18.0976992 22.0964863,19.8961777 20.9864805,21.0061836 C20.4311934,21.5612813 19.7040723,21.8388301 18.9769512,21.8388301 Z" id="Shape"></path>
                                <path d="M31.0324219,17.8203398 C29.8418984,17.8203398 28.7345449,17.0682109 28.3376406,15.8776875 L24.3191504,3.81956445 C23.8224043,2.32932617 24.6272012,0.719732422 26.1147871,0.225638672 C27.6188555,-0.273949219 29.2146191,0.533689453 29.7087129,2.02127539 L33.7272031,14.0793984 C34.2239492,15.5696367 33.4191523,17.1792305 31.9315664,17.6733242 C31.6318516,17.773166 31.3294844,17.8203398 31.0324219,17.8203398 Z" id="Shape"></path>
                                <path d="M14.9558086,33.8969531 C14.6589355,33.8969531 14.3563789,33.8497793 14.0566641,33.7499375 L2.00119336,29.7286055 C0.513607422,29.2318594 -0.291189453,27.6222656 0.205556641,26.1346797 C0.702302734,24.6470937 2.30356055,23.8451387 3.79948242,24.339043 L15.8549531,28.360375 C17.3425391,28.8571211 18.1473359,30.4667148 17.6505898,31.9543008 C17.2536855,33.1450137 16.146332,33.8969531 14.9558086,33.8969531 Z" id="Shape"></path>
                            </g>
                            <path d="M62.0648438,34.9349668 C54.5625,27.3759766 41.4333984,27.3759766 33.9310547,34.9349668 L5.79745508,63.0687559 C-1.93242187,70.7986328 -1.93242187,83.4162109 5.79745508,91.2025449 C9.71913477,95.0675781 14.7773438,97 19.8925781,97 C24.9509766,97 30.0660215,95.0673887 33.9308652,91.2025449 L62.0646543,63.0687559 C65.8160156,59.3177734 67.9189453,54.3162109 67.9189453,48.9736328 C67.9191348,43.6878906 65.8162051,38.6863281 62.0648438,34.9349668 Z M54.051166,54.9982422 L25.9171875,83.1320312 C24.3259707,84.723248 22.1662051,85.6328125 19.8925781,85.6328125 C17.6189512,85.6328125 15.4591855,84.723248 13.8679688,83.1320312 C10.514459,79.8353574 10.514459,74.4359434 13.8679688,71.0828125 L42.0017578,42.9490234 C43.4794922,41.4712891 45.6392578,40.6753965 48.0263672,40.6753965 C50.3564512,40.6753965 52.5732422,41.4710996 54.0509766,42.9490234 C55.6990293,44.5970762 56.5517578,46.7000059 56.5517578,48.9736328 C56.5519473,51.3037168 55.6992188,53.3501895 54.051166,54.9982422 Z" id="Shape" fill="#FCBF29"></path>
                            <path d="M67.9191348,48.9736328 C67.9191348,54.3162109 65.8162051,59.3177734 62.0648437,63.0687559 L33.9310547,91.2027344 C30.0662109,95.0675781 24.951166,97 19.8925781,97 C14.7773438,97 9.71913477,95.0675781 5.79745508,91.2027344 L13.8681582,83.1320312 C15.459375,84.723248 17.6191406,85.6328125 19.8925781,85.6328125 C22.1660156,85.6328125 24.3259707,84.723248 25.9171875,83.1320313 L54.0509766,54.9982422 C55.6990293,53.3501895 56.5517578,51.3037168 56.5517578,48.9736328 C56.5517578,46.7000059 55.6990293,44.5970762 54.0509766,42.9490234 L62.0646543,34.9349668 C65.8162051,38.6863281 67.9191348,43.6878906 67.9191348,48.9736328 Z" id="Shape" fill="#FEA832"></path>
                            <path d="M97,19.7220703 C97,25.0078125 94.9539062,30.009375 91.145709,33.7607363 L62.6902285,62.2734316 C58.7685488,66.1382754 53.7099609,68.0705078 48.5947266,68.0705078 C43.5363281,68.0705078 38.5349551,66.1947324 34.6699219,62.3300781 L42.6839785,54.3164004 C44.2751953,55.9074277 46.378125,56.7033203 48.5947266,56.7033203 C50.8683535,56.7033203 53.0281191,55.8509707 54.6193359,54.259375 L83.1320313,25.7466797 C84.7802734,24.0984375 85.6328125,21.9955078 85.6328125,19.7220703 C85.6328125,17.4488223 84.8371094,15.4025391 83.2458926,13.7542969 L91.2595703,5.74061914 C95.0109316,9.49160156 97,14.4363281 97,19.7220703 Z" id="Shape" fill="#159CE4"></path>
                        </g>
                    </g>
                </g>
            </g>
        </g>
    </g>
</svg>