<?xml version="1.0"?>
<svg xmlns="http://www.w3.org/2000/svg" xmlns:xlink="http://www.w3.org/1999/xlink" version="1.1" id="Capa_1" x="0px" y="0px" viewBox="0 0 512 512" style="enable-background:new 0 0 512 512;" xml:space="preserve" width="512px" height="512px"><g><path style="fill:#4DBBEB;" d="M481.7,30.301c-0.3-0.3-0.3-0.3-0.601-0.601c-39.598-39.6-108.6-39.6-148.198,0l-150.5,150.5  c-41.1,41.1-41.1,107.699,0,148.5c0.3,0.298,0.3,0.298,0.599,0.298c20.402,20.4,46.8,30.3,73.5,30.3  c27.001,0,53.701-10.199,74.401-30.599l150.198-150.5C501.201,158.4,512,131.999,512,104.1S501.501,50.1,481.7,30.301z M438.8,135.9  L288.3,286.4c-8.399,8.401-19.799,12.9-31.8,12.9c-11.7,0-22.8-4.2-31.199-12.599c-0.3,0-0.3,0-0.601-0.3  c-17.401-17.699-17.699-46.199,0-63.6l150.5-150.5c7.8-7.8,19.2-12.299,31.8-12.299s24,4.499,31.8,11.999  c0.3,0.3,0.3,0.3,0.601,0.601C447.8,81.299,452,92.101,452,104.1C452,116.1,447.5,127.2,438.8,135.9z" data-original="#4DBBEB"/><g>
	<path style="fill:#159CE4;" d="M423.15,443.255c-3.838,0-7.676-1.465-10.605-4.395l-42.437-42.422   c-5.859-5.859-5.859-15.352,0-21.211s15.352-5.859,21.211,0l42.437,42.422c5.859,5.859,5.859,15.352,0,21.211   C430.826,441.79,426.988,443.255,423.15,443.255z" data-original="#159CE4"/>
	<path style="fill:#159CE4;" d="M465.572,358.412c-1.567,0-3.164-0.249-4.746-0.776l-63.633-21.226   c-7.852-2.622-12.1-11.118-9.478-18.97c2.607-7.852,11.03-12.129,18.97-9.478l63.633,21.226c7.852,2.622,12.1,11.118,9.478,18.97   C477.701,354.442,471.856,358.412,465.572,358.412z" data-original="#159CE4"/>
	<path style="fill:#159CE4;" d="M338.291,485.692c-6.284,0-12.129-3.97-14.224-10.254l-21.211-63.647   c-2.622-7.866,1.626-16.362,9.478-18.97c7.896-2.607,16.348,1.626,18.97,9.478l21.211,63.647c2.622,7.866-1.626,16.362-9.478,18.97   C341.456,485.443,339.859,485.692,338.291,485.692z" data-original="#159CE4"/>
</g><g>
	<path style="fill:#4DBBEB;" d="M126.167,146.273c-3.838,0-7.676-1.465-10.605-4.395L73.125,99.456   c-5.859-5.859-5.859-15.352,0-21.211c5.86-5.859,15.352-5.859,21.212,0l42.437,42.422c5.859,5.859,5.859,15.352,0,21.211   C133.843,144.808,130.005,146.273,126.167,146.273z" data-original="#4DBBEB"/>
	<path style="fill:#4DBBEB;" d="M189.8,125.062c-6.284,0-12.129-3.97-14.224-10.254l-21.211-63.647   c-2.622-7.866,1.626-16.362,9.478-18.97c7.939-2.637,16.362,1.626,18.97,9.478l21.211,63.647c2.622,7.866-1.626,16.362-9.478,18.97   C192.964,124.813,191.368,125.062,189.8,125.062z" data-original="#4DBBEB"/>
	<path style="fill:#4DBBEB;" d="M104.942,209.92c-1.567,0-3.164-0.249-4.746-0.776l-63.633-21.226   c-7.852-2.622-12.1-11.118-9.478-18.97s11.074-12.085,18.97-9.478l63.633,21.226c7.852,2.622,12.1,11.118,9.478,18.97   C117.071,205.951,111.226,209.92,104.942,209.92z" data-original="#4DBBEB"/>
</g><path style="fill:#FCBF29;" d="M327.6,184.399c-39.6-39.899-108.9-39.899-148.5,0l-148.499,148.5  c-40.801,40.801-40.801,107.401,0,148.5C51.301,501.8,78,512,105,512c26.7,0,53.699-10.201,74.099-30.601l148.5-148.5  C347.4,313.1,358.5,286.7,358.5,258.5C358.501,230.6,347.401,204.2,327.6,184.399z M285.301,290.3L136.8,438.8  c-8.399,8.399-19.799,13.2-31.8,13.2s-23.401-4.801-31.8-13.2c-17.701-17.401-17.701-45.901,0-63.6l148.5-148.5  c7.8-7.8,19.2-12.001,31.8-12.001c12.299,0,24,4.2,31.8,12.001c8.699,8.699,13.2,19.799,13.2,31.8  C298.501,270.799,294,281.601,285.301,290.3z" data-original="#FCBF29"/><path style="fill:#FEA832" d="M358.501,258.5c0,28.2-11.1,54.6-30.901,74.399L179.1,481.4C158.7,501.8,131.701,512,105,512  c-27,0-53.699-10.2-74.399-30.6l42.6-42.6C81.6,447.199,93,452,105,452s23.401-4.801,31.8-13.2l148.5-148.5  c8.699-8.699,13.2-19.501,13.2-31.8c0-12.001-4.501-23.101-13.2-31.8l42.299-42.301C347.401,204.2,358.501,230.6,358.501,258.5z" data-original="#FEA832" class="active-path" data-old_color="#FEA832"/><path style="fill:#159CE4;" d="M512,104.1c0,27.9-10.8,54.3-30.901,74.101l-150.198,150.5c-20.7,20.4-47.401,30.599-74.401,30.599  c-26.7,0-53.099-9.901-73.5-30.3l42.301-42.299C233.7,295.099,244.8,299.3,256.5,299.3c12.001,0,23.401-4.499,31.8-12.9l150.5-150.5  c8.7-8.7,13.2-19.8,13.2-31.8c0-11.999-4.2-22.8-12.599-31.5L481.7,30.301C501.501,50.1,512,76.2,512,104.1z" data-original="#159CE4"/></g> </svg>
