<?xml version="1.0" encoding="UTF-8"?>
<svg width="97px" height="97px" viewBox="0 0 97 97" xmlns="http://www.w3.org/2000/svg" xmlns:xlink="http://www.w3.org/1999/xlink" version="1.1">
    <g id="New-LogiTrack-Mobile-Application." stroke="none" stroke-width="1" fill="none" fill-rule="evenodd">
        <g id="2.-Dashboard" transform="translate(-113.000000, -844.000000)" fill-rule="nonzero">
            <g id="Group-3" transform="translate(52.000000, 427.000000)">
                <g id="job-1-copy-3" transform="translate(0.000000, 371.000000)">
                    <g id="Group">
                        <g id="truck" transform="translate(61.000000, 46.000000)">
                            <polygon id="Shape" fill="#AA8058" points="64.1451613 1.56451613 70.4032258 1.56451613 70.4032258 17.2096774 64.1451613 17.2096774"></polygon>
                            <polygon id="Shape" fill="#AA8058" points="26.5967742 1.56451613 32.8548387 1.56451613 32.8548387 17.2096774 26.5967742 17.2096774"></polygon>
                            <g id="Group" transform="translate(20.338710, 1.564516)" fill="#E3AA75">
                                <polygon id="Shape" points="0 0 6.25806452 0 6.25806452 15.6451613 0 15.6451613"></polygon>
                                <polygon id="Shape" points="50.0645161 0 56.3225806 0 56.3225806 15.6451613 50.0645161 15.6451613"></polygon>
                                <polygon id="Shape" points="12.516129 0 43.8064516 0 43.8064516 15.6451613 12.516129 15.6451613"></polygon>
                            </g>
                            <polygon id="Shape" fill="#9AB878" points="89.1774194 32.8548387 95.4354839 32.8548387 95.4354839 45.3709677 89.1774194 45.3709677"></polygon>
                            <polygon id="Shape" fill="#9AB878" points="1.56451613 32.8548387 7.82258065 32.8548387 7.82258065 45.3709677 1.56451613 45.3709677"></polygon>
                            <path d="M4.69354839,76.6612903 L4.69354839,61.7749194 C4.69354839,59.2857742 5.68232258,56.8983226 7.44240323,55.1366774 L14.0806452,48.5 L14.0806452,23.4677419 C14.0806452,20.0117258 16.8826935,17.2096774 20.3387097,17.2096774 L76.6612903,17.2096774 C80.1173065,17.2096774 82.9193548,20.0117258 82.9193548,23.4677419 L82.9193548,48.5 L89.5575968,55.1382419 C91.3176774,56.8983226 92.3064516,59.2857742 92.3064516,61.7749194 L92.3064516,76.6612903" id="Shape" fill="#738A5A"></path>
                            <path d="M14.0806452,23.4677419 L14.0806452,48.5 L7.44240323,55.1382419 C5.68232258,56.8983226 4.69354839,59.2857742 4.69354839,61.7749194 L4.69354839,76.5768065 L87.6129032,76.6612903 L87.6129032,61.7749194 C87.6129032,59.2857742 86.624129,56.8983226 84.8640484,55.1366774 L78.2258065,48.5 L78.2258065,23.4677419 C78.2258065,20.0117258 75.4237581,17.2096774 71.9677419,17.2096774 L20.3387097,17.2096774 C16.8826935,17.2096774 14.0806452,20.0117258 14.0806452,23.4677419 Z" id="Shape" fill="#9AB878"></path>
                            <polygon id="Shape" fill="#AA8058" points="29.7258065 70.4032258 67.2741935 70.4032258 67.2741935 76.6612903 29.7258065 76.6612903"></polygon>
                            <polygon id="Shape" fill="#E3AA75" points="29.7258065 70.4032258 62.5806452 70.4032258 62.5806452 76.6612903 29.7258065 76.6612903"></polygon>
                            <polygon id="Shape" fill="#AA8058" points="29.7258065 64.1451613 67.2741935 64.1451613 67.2741935 70.4032258 29.7258065 70.4032258"></polygon>
                            <polygon id="Shape" fill="#E3AA75" points="29.7258065 64.1451613 62.5806452 64.1451613 62.5806452 70.4032258 29.7258065 70.4032258"></polygon>
                            <polygon id="Shape" fill="#AA8058" points="29.7258065 57.8870968 67.2741935 57.8870968 67.2741935 64.1451613 29.7258065 64.1451613"></polygon>
                            <polygon id="Shape" fill="#E3AA75" points="29.7258065 57.8870968 62.5806452 57.8870968 62.5806452 64.1451613 29.7258065 64.1451613"></polygon>
                            <polygon id="Shape" fill="#AA8058" points="1.56451613 76.6612903 95.4354839 76.6612903 95.4354839 86.0483871 1.56451613 86.0483871"></polygon>
                            <polygon id="Shape" fill="#E3AA75" points="0 76.6612903 87.6129032 76.6612903 87.6129032 86.0483871 0 86.0483871"></polygon>
                            <polygon id="Shape" fill="#BFBF73" points="32.8548387 76.6612903 64.1451613 76.6612903 64.1451613 86.0483871 32.8548387 86.0483871"></polygon>
                            <polygon id="Shape" fill="#FFFF99" points="32.8548387 76.6612903 59.4516129 76.6612903 59.4516129 86.0483871 32.8548387 86.0483871"></polygon>
                            <circle id="Oval" fill="#BFBF73" cx="79.7903226" cy="64.1451613" r="6.25806452"></circle>
                            <ellipse id="Oval" fill="#FFFF99" cx="77.4435484" cy="64.1451613" rx="3.91129032" ry="5.79340323"></ellipse>
                            <circle id="Oval" fill="#BFBF73" cx="17.2096774" cy="64.1451613" r="6.25806452"></circle>
                            <ellipse id="Oval" fill="#FFFF99" cx="14.8629032" cy="64.1451613" rx="3.91129032" ry="5.79340323"></ellipse>
                            <polygon id="Shape" fill="#93A7BF" points="14.0806452 26.5967742 82.9193548 26.5967742 82.9193548 48.5 14.0806452 48.5"></polygon>
                            <polygon id="Shape" fill="#C4DEFF" points="14.0806452 26.5967742 78.2258065 26.5967742 78.2258065 48.5 14.0806452 48.5"></polygon>
                            <path d="M86.0483871,95.4354839 L76.6612903,95.4354839 C74.9325,95.4354839 73.5322581,94.0352419 73.5322581,92.3064516 L73.5322581,86.0483871 L89.1774194,86.0483871 L89.1774194,92.3064516 C89.1774194,94.0352419 87.7771774,95.4354839 86.0483871,95.4354839 Z" id="Shape" fill="#717072"></path>
                            <path d="M84.483871,92.3064516 L84.483871,86.0483871 L73.5322581,86.0483871 L73.5322581,92.3064516 C73.5322581,94.0352419 74.9325,95.4354839 76.6612903,95.4354839 L81.3548387,95.4354839 C83.083629,95.4354839 84.483871,94.0352419 84.483871,92.3064516 Z" id="Shape" fill="#979598"></path>
                            <path d="M20.3387097,95.4354839 L10.9516129,95.4354839 C9.22282258,95.4354839 7.82258065,94.0352419 7.82258065,92.3064516 L7.82258065,86.0483871 L23.4677419,86.0483871 L23.4677419,92.3064516 C23.4677419,94.0352419 22.0675,95.4354839 20.3387097,95.4354839 Z" id="Shape" fill="#717072"></path>
                            <path d="M18.7741935,92.3064516 L18.7741935,86.0483871 L7.82258065,86.0483871 L7.82258065,92.3064516 C7.82258065,94.0352419 9.22282258,95.4354839 10.9516129,95.4354839 L15.6451613,95.4354839 C17.3739516,95.4354839 18.7741935,94.0352419 18.7741935,92.3064516 Z" id="Shape" fill="#979598"></path>
                            <path d="M20.3387097,97 L10.9516129,97 C8.36390323,97 6.25806452,94.8941613 6.25806452,92.3064516 L6.25806452,86.0483871 L9.38709677,86.0483871 L9.38709677,92.3064516 C9.38709677,93.1685 10.088,93.8709677 10.9516129,93.8709677 L20.3387097,93.8709677 C21.2023226,93.8709677 21.9032258,93.1685 21.9032258,92.3064516 L21.9032258,86.0483871 L25.0322581,86.0483871 L25.0322581,92.3064516 C25.0322581,94.8941613 22.9264194,97 20.3387097,97 Z" id="Shape" fill="#000000"></path>
                            <path d="M86.0483871,97 L76.6612903,97 C74.0735806,97 71.9677419,94.8941613 71.9677419,92.3064516 L71.9677419,86.0483871 L75.0967742,86.0483871 L75.0967742,92.3064516 C75.0967742,93.1685 75.7976774,93.8709677 76.6612903,93.8709677 L86.0483871,93.8709677 C86.912,93.8709677 87.6129032,93.1685 87.6129032,92.3064516 L87.6129032,86.0483871 L90.7419355,86.0483871 L90.7419355,92.3064516 C90.7419355,94.8941613 88.6360968,97 86.0483871,97 Z" id="Shape" fill="#000000"></path>
                            <path d="M95.4354839,87.6129032 L1.56451613,87.6129032 C0.69933871,87.6129032 0,86.912 0,86.0483871 L0,76.6612903 C0,75.7976774 0.69933871,75.0967742 1.56451613,75.0967742 L95.4354839,75.0967742 C96.3006613,75.0967742 97,75.7976774 97,76.6612903 L97,86.0483871 C97,86.912 96.3006613,87.6129032 95.4354839,87.6129032 Z M3.12903226,84.483871 L93.8709677,84.483871 L93.8709677,78.2258065 L3.12903226,78.2258065 L3.12903226,84.483871 Z" id="Shape" fill="#000000"></path>
                            <polygon id="Shape" fill="#000000" points="31.2903226 76.6612903 34.4193548 76.6612903 34.4193548 86.0483871 31.2903226 86.0483871"></polygon>
                            <polygon id="Shape" fill="#000000" points="62.5806452 76.6612903 65.7096774 76.6612903 65.7096774 86.0483871 62.5806452 86.0483871"></polygon>
                            <path d="M93.8709677,76.6612903 L90.7419355,76.6612903 L90.7419355,61.7749194 C90.7419355,59.6847258 89.9268226,57.7196935 88.4499194,56.2443548 L81.8132419,49.6061129 C81.5191129,49.3135484 81.3548387,48.9145968 81.3548387,48.5 L81.3548387,23.4677419 C81.3548387,20.8800323 79.249,18.7741935 76.6612903,18.7741935 L20.3387097,18.7741935 C17.751,18.7741935 15.6451613,20.8800323 15.6451613,23.4677419 L15.6451613,48.5 C15.6451613,48.9145968 15.4808871,49.3135484 15.1867581,49.6061129 L8.55008065,56.2443548 C7.07317742,57.7212581 6.25806452,59.6847258 6.25806452,61.7749194 L6.25806452,76.6612903 L3.12903226,76.6612903 L3.12903226,61.7749194 C3.12903226,58.8477097 4.26956452,56.0988548 6.33785484,54.0305645 L12.516129,47.8522903 L12.516129,23.4677419 C12.516129,19.154371 16.0253387,15.6451613 20.3387097,15.6451613 L76.6612903,15.6451613 C80.9746613,15.6451613 84.483871,19.154371 84.483871,23.4677419 L84.483871,47.8522903 L90.6621452,54.032129 C92.7304355,56.0988548 93.8709677,58.8492742 93.8709677,61.7749194 L93.8709677,76.6612903 Z" id="Shape" fill="#000000"></path>
                            <polygon id="Shape" fill="#000000" points="14.0806452 46.9354839 82.9193548 46.9354839 82.9193548 50.0645161 14.0806452 50.0645161"></polygon>
                            <path d="M68.8387097,76.6612903 L65.7096774,76.6612903 L65.7096774,59.4516129 L31.2903226,59.4516129 L31.2903226,76.6612903 L28.1612903,76.6612903 L28.1612903,57.8870968 C28.1612903,57.0234839 28.860629,56.3225806 29.7258065,56.3225806 L67.2741935,56.3225806 C68.139371,56.3225806 68.8387097,57.0234839 68.8387097,57.8870968 L68.8387097,76.6612903 Z" id="Shape" fill="#000000"></path>
                            <path d="M17.2096774,71.9677419 C12.8963065,71.9677419 9.38709677,68.4585323 9.38709677,64.1451613 C9.38709677,59.8317903 12.8963065,56.3225806 17.2096774,56.3225806 C21.5230484,56.3225806 25.0322581,59.8317903 25.0322581,64.1451613 C25.0322581,68.4585323 21.5230484,71.9677419 17.2096774,71.9677419 Z M17.2096774,59.4516129 C14.6219677,59.4516129 12.516129,61.5574516 12.516129,64.1451613 C12.516129,66.732871 14.6219677,68.8387097 17.2096774,68.8387097 C19.7973871,68.8387097 21.9032258,66.732871 21.9032258,64.1451613 C21.9032258,61.5574516 19.7973871,59.4516129 17.2096774,59.4516129 Z" id="Shape" fill="#000000"></path>
                            <path d="M79.7903226,71.9677419 C75.4769516,71.9677419 71.9677419,68.4585323 71.9677419,64.1451613 C71.9677419,59.8317903 75.4769516,56.3225806 79.7903226,56.3225806 C84.1036935,56.3225806 87.6129032,59.8317903 87.6129032,64.1451613 C87.6129032,68.4585323 84.1036935,71.9677419 79.7903226,71.9677419 Z M79.7903226,59.4516129 C77.2026129,59.4516129 75.0967742,61.5574516 75.0967742,64.1451613 C75.0967742,66.732871 77.2026129,68.8387097 79.7903226,68.8387097 C82.3780323,68.8387097 84.483871,66.732871 84.483871,64.1451613 C84.483871,61.5574516 82.3780323,59.4516129 79.7903226,59.4516129 Z" id="Shape" fill="#000000"></path>
                            <polygon id="Shape" fill="#000000" points="29.7258065 62.5806452 67.2741935 62.5806452 67.2741935 65.7096774 29.7258065 65.7096774"></polygon>
                            <polygon id="Shape" fill="#000000" points="29.7258065 68.8387097 67.2741935 68.8387097 67.2741935 71.9677419 29.7258065 71.9677419"></polygon>
                            <path d="M78.2258065,17.2096774 L75.0967742,17.2096774 L75.0967742,3.12903226 L21.9032258,3.12903226 L21.9032258,17.2096774 L18.7741935,17.2096774 L18.7741935,1.56451613 C18.7741935,0.700903226 19.4735323,0 20.3387097,0 L76.6612903,0 C77.5264677,0 78.2258065,0.700903226 78.2258065,1.56451613 L78.2258065,17.2096774 Z" id="Shape" fill="#000000"></path>
                            <polygon id="Shape" fill="#000000" points="25.0322581 1.56451613 28.1612903 1.56451613 28.1612903 17.2096774 25.0322581 17.2096774"></polygon>
                            <polygon id="Shape" fill="#000000" points="31.2903226 1.56451613 34.4193548 1.56451613 34.4193548 17.2096774 31.2903226 17.2096774"></polygon>
                            <polygon id="Shape" fill="#000000" points="62.5806452 1.56451613 65.7096774 1.56451613 65.7096774 17.2096774 62.5806452 17.2096774"></polygon>
                            <polygon id="Shape" fill="#000000" points="68.8387097 1.56451613 71.9677419 1.56451613 71.9677419 17.2096774 68.8387097 17.2096774"></polygon>
                            <polygon id="Shape" fill="#000000" points="14.0806452 25.0322581 82.9193548 25.0322581 82.9193548 28.1612903 14.0806452 28.1612903"></polygon>
                            <polygon id="Shape" fill="#000000" points="18.7741935 40.6774194 40.6774194 40.6774194 40.6774194 43.8064516 18.7741935 43.8064516"></polygon>
                            <polygon id="Shape" fill="#000000" points="28.1612903 42.2419355 31.2903226 42.2419355 31.2903226 48.5 28.1612903 48.5"></polygon>
                            <polygon id="Shape" fill="#000000" points="56.3225806 40.6774194 78.2258065 40.6774194 78.2258065 43.8064516 56.3225806 43.8064516"></polygon>
                            <polygon id="Shape" fill="#000000" points="65.7096774 42.2419355 68.8387097 42.2419355 68.8387097 48.5 65.7096774 48.5"></polygon>
                            <path d="M93.8709677,32.8548387 L90.7419355,32.8548387 L90.7419355,29.7258065 C90.7419355,28.8637581 90.0410323,28.1612903 89.1774194,28.1612903 L82.9193548,28.1612903 L82.9193548,25.0322581 L89.1774194,25.0322581 C91.765129,25.0322581 93.8709677,27.1380968 93.8709677,29.7258065 L93.8709677,32.8548387 Z" id="Shape" fill="#000000"></path>
                            <path d="M95.4354839,46.9354839 L89.1774194,46.9354839 C88.3122419,46.9354839 87.6129032,46.2345806 87.6129032,45.3709677 L87.6129032,32.8548387 C87.6129032,31.9912258 88.3122419,31.2903226 89.1774194,31.2903226 L95.4354839,31.2903226 C96.3006613,31.2903226 97,31.9912258 97,32.8548387 L97,45.3709677 C97,46.2345806 96.3006613,46.9354839 95.4354839,46.9354839 Z M90.7419355,43.8064516 L93.8709677,43.8064516 L93.8709677,34.4193548 L90.7419355,34.4193548 L90.7419355,43.8064516 Z" id="Shape" fill="#000000"></path>
                            <path d="M6.25806452,32.8548387 L3.12903226,32.8548387 L3.12903226,29.7258065 C3.12903226,27.1380968 5.23487097,25.0322581 7.82258065,25.0322581 L14.0806452,25.0322581 L14.0806452,28.1612903 L7.82258065,28.1612903 C6.95896774,28.1612903 6.25806452,28.8637581 6.25806452,29.7258065 L6.25806452,32.8548387 Z" id="Shape" fill="#000000"></path>
                            <path d="M7.82258065,46.9354839 L1.56451613,46.9354839 C0.69933871,46.9354839 0,46.2345806 0,45.3709677 L0,32.8548387 C0,31.9912258 0.69933871,31.2903226 1.56451613,31.2903226 L7.82258065,31.2903226 C8.68775806,31.2903226 9.38709677,31.9912258 9.38709677,32.8548387 L9.38709677,45.3709677 C9.38709677,46.2345806 8.68775806,46.9354839 7.82258065,46.9354839 Z M3.12903226,43.8064516 L6.25806452,43.8064516 L6.25806452,34.4193548 L3.12903226,34.4193548 L3.12903226,43.8064516 Z" id="Shape" fill="#000000"></path>
                        </g>
                    </g>
                </g>
            </g>
        </g>
    </g>
</svg>