<?xml version="1.0" encoding="UTF-8"?>
<svg width="84px" height="97px" viewBox="0 0 84 97" version="1.1" xmlns="http://www.w3.org/2000/svg" xmlns:xlink="http://www.w3.org/1999/xlink">
    <g id="New-LogiTrack-Mobile-Application." stroke="none" stroke-width="1" fill="none" fill-rule="evenodd">
        <g id="2.-Dashboard" transform="translate(-624.000000, -1215.000000)" fill-rule="nonzero">
            <g id="Group-3" transform="translate(52.000000, 427.000000)">
                <g id="job-1-copy-5" transform="translate(512.000000, 740.000000)">
                    <g id="Group">
                        <g id="customer" transform="translate(60.000000, 48.000000)">
                            <path d="M41.6500613,41.1792453 C19.0010189,41.1792453 0.0132688679,60.1669953 0.0132688679,82.8160377 L0.0132688679,90.1367925 C0.0132688679,93.9806462 3.03262264,97 6.87647642,97 L76.4236462,97 C80.2675,97 83.2868538,93.9806462 83.2868538,90.1367925 L83.2868538,82.8160377 C83.2868538,60.1669953 64.2991038,41.1792453 41.6500613,41.1792453 Z" id="Shape" fill="#1689FC"></path>
                            <path d="M83.2868538,82.8160377 L83.2868538,90.1367925 C83.2868538,93.9806462 80.2675,97 76.4236462,97 L41.6500613,97 L41.6500613,41.1792453 C64.2991038,41.1792453 83.2868538,60.1669953 83.2868538,82.8160377 Z" id="Shape" fill="#136EF1"></path>
                            <path d="M41.6500613,0 C26.5514623,0 13.739684,12.3542311 13.739684,27.4528302 C13.739684,42.5514292 26.5514623,54.9056604 41.6500613,54.9056604 C56.7486604,54.9056604 69.5604387,42.5514292 69.5604387,27.4528302 C69.5604387,12.3542311 56.7486604,0 41.6500613,0 Z" id="Shape" fill="#17ACE8"></path>
                            <path d="M69.5604387,27.4528302 C69.5604387,42.5514292 56.7486604,54.9056604 41.6500613,54.9056604 L41.6500613,0 C56.7486604,0 69.5604387,12.3542311 69.5604387,27.4528302 Z" id="Shape" fill="#1689FC"></path>
                        </g>
                    </g>
                </g>
            </g>
        </g>
    </g>
</svg>