<?xml version="1.0" encoding="UTF-8"?>
<svg width="60px" height="60px" viewBox="0 0 60 60" version="1.1" xmlns="http://www.w3.org/2000/svg" xmlns:xlink="http://www.w3.org/1999/xlink">
    <g id="New-LogiTrack-Mobile-Application." stroke="none" stroke-width="1" fill="none" fill-rule="evenodd">
        <g id="2.-Dashboard" transform="translate(-960.000000, -63.000000)" fill="#FFFFFF" fill-rule="nonzero">
            <g id="qr-code" transform="translate(960.000000, 63.000000)">
                <path d="M7.24584956,8.30676272 L7.24584956,24.5782471 C7.24584956,25.2282714 7.77282713,25.7548828 8.42248537,25.7548828 L24.6943359,25.7548828 C25.3439942,25.7548828 25.8709717,25.2282714 25.8709717,24.5782471 L25.8709717,21.4929199 C25.8709717,20.8428955 25.3439942,20.3162842 24.6943359,20.3162842 C24.0446777,20.3162842 23.5180664,20.8428955 23.5180664,21.4929199 L23.5180664,23.4019776 L9.59912109,23.4019776 L9.59912109,9.48303225 L23.5180664,9.48303225 L23.5180664,12.3156739 C23.5180664,12.9656982 24.0446777,13.4926758 24.6943359,13.4926758 C25.3439942,13.4926758 25.8709717,12.9656982 25.8709717,12.3156739 L25.8709717,8.30676272 C25.8709717,7.65673828 25.3439942,7.130127 24.6943359,7.130127 L8.42248537,7.130127 C7.77282713,7.130127 7.24584956,7.65673828 7.24584956,8.30676272 Z" id="Shape"></path>
                <path d="M14.1177979,12.8254395 C13.4677734,12.8254395 12.9415283,13.3520508 12.9415283,14.0017089 L12.9415283,18.8833008 C12.9415283,19.5329589 13.4677734,20.0599365 14.1177979,20.0599365 L18.9993896,20.0599365 C19.6490479,20.0599365 20.1760254,19.5329589 20.1760254,18.8833008 L20.1760254,14.0017089 C20.1760254,13.3520508 19.6490479,12.8254395 18.9993896,12.8254395 L14.1177979,12.8254395 Z M17.8231201,17.7070312 L15.2944336,17.7070312 L15.2944336,15.1783448 L17.8231201,15.1783448 L17.8231201,17.7070312 Z" id="Shape"></path>
                <path d="M24.6943359,34.1572266 L8.42248537,34.1572266 C7.77282713,34.1572266 7.24584956,34.6838379 7.24584956,35.3334961 L7.24584956,51.6057129 C7.24584956,52.2553711 7.77282713,52.7819824 8.42248537,52.7819824 L24.6943359,52.7819824 C25.3439942,52.7819824 25.8709717,52.2553711 25.8709717,51.6057129 L25.8709717,35.3334961 C25.8709717,34.6838379 25.3439942,34.1572266 24.6943359,34.1572266 Z M23.5180664,50.4290771 L9.59912109,50.4290771 L9.59912109,36.5101318 L23.5180664,36.5101318 L23.5180664,50.4290771 Z" id="Shape"></path>
                <path d="M35.53125,25.7548828 L51.8034667,25.7548828 C52.4527588,25.7548828 52.9797364,25.2282714 52.9797364,24.5782471 L52.9797364,8.30676272 C52.9797364,7.65673828 52.4527588,7.130127 51.8034667,7.130127 L35.53125,7.130127 C34.8815918,7.130127 34.3546143,7.65673828 34.3546143,8.30676272 L34.3546143,24.5782471 C34.3546143,25.2282714 34.8815918,25.7548828 35.53125,25.7548828 Z M36.7075195,9.48303225 L50.6264648,9.48303225 L50.6264648,23.4019776 L36.7075195,23.4019776 L36.7075195,9.48303225 Z" id="Shape"></path>
                <path d="M52.9797364,51.6057129 L52.9797364,35.3334961 C52.9797364,34.6838379 52.4527588,34.1572266 51.8034667,34.1572266 L35.53125,34.1572266 C34.8815918,34.1572266 34.3546143,34.6838379 34.3546143,35.3334961 L34.3546143,51.6057129 C34.3546143,52.2553711 34.8815918,52.7819824 35.53125,52.7819824 L51.8034667,52.7819824 C52.4527588,52.7819824 52.9797364,52.2553711 52.9797364,51.6057129 Z M50.6264648,50.4290771 L36.7075195,50.4290771 L36.7075195,36.5101318 L50.6264648,36.5101318 L50.6264648,50.4290771 Z" id="Shape"></path>
                <path d="M51.8034667,31.2037354 C52.4527588,31.2037354 52.9797364,30.6767578 52.9797364,30.0270996 C52.9797364,29.3770752 52.4527588,28.8508301 51.8034667,28.8508301 L31.1755371,28.8508301 L31.1755371,8.17639163 C31.1755371,7.52673338 30.6485596,6.99975581 29.9992676,6.99975581 C29.348877,6.99975581 28.8222656,7.52673338 28.8222656,8.17639163 L28.8222656,28.8508301 L13.2062989,28.8508301 C12.5570068,28.8508301 12.0300292,29.3774414 12.0300292,30.0270996 C12.0300292,30.677124 12.5570068,31.2037354 13.2062989,31.2037354 L28.8222656,31.2037354 L28.8222656,51.6057129 C28.8222656,52.2553711 29.348877,52.7819824 29.9992676,52.7819824 C30.6485596,52.7819824 31.1755371,52.2553711 31.1755371,51.6057129 L31.1755371,31.2037354 L51.8034667,31.2037354 Z" id="Shape"></path>
                <path d="M14.1177979,47.1745605 L18.9993896,47.1745605 C19.6490479,47.1745605 20.1760254,46.647583 20.1760254,45.9979248 L20.1760254,41.116333 C20.1760254,40.4663086 19.6490479,39.9400635 18.9993896,39.9400635 L14.1177979,39.9400635 C13.4677734,39.9400635 12.9415283,40.4663086 12.9415283,41.116333 L12.9415283,45.9979248 C12.9415283,46.647583 13.4677734,47.1745605 14.1177979,47.1745605 Z M15.2944336,42.2929688 L17.8231201,42.2929688 L17.8231201,44.8216553 L15.2944336,44.8216553 L15.2944336,42.2929688 Z" id="Shape"></path>
                <path d="M46.1077881,12.8254395 L41.2261963,12.8254395 C40.5765381,12.8254395 40.0495605,13.3520508 40.0495605,14.0017089 L40.0495605,18.8833008 C40.0495605,19.5329589 40.5765381,20.0599365 41.2261963,20.0599365 L46.1077881,20.0599365 C46.7578125,20.0599365 47.2844239,19.5329589 47.2844239,18.8833008 L47.2844239,14.0017089 C47.2844239,13.3520508 46.7578125,12.8254395 46.1077881,12.8254395 Z M44.9311523,17.7070312 L42.4031982,17.7070312 L42.4031982,15.1783448 L44.9311523,15.1783448 L44.9311523,17.7070312 Z" id="Shape"></path>
                <path d="M41.2261963,47.1745605 L46.1077881,47.1745605 C46.7578125,47.1745605 47.2844239,46.647583 47.2844239,45.9979248 L47.2844239,41.116333 C47.2844239,40.4663086 46.7578125,39.9400635 46.1077881,39.9400635 L41.2261963,39.9400635 C40.5765381,39.9400635 40.0495605,40.4663086 40.0495605,41.116333 L40.0495605,45.9979248 C40.0495605,46.647583 40.5765381,47.1745605 41.2261963,47.1745605 Z M42.4031982,42.2929688 L44.9311523,42.2929688 L44.9311523,44.8216553 L42.4031982,44.8216553 L42.4031982,42.2929688 Z" id="Shape"></path>
                <path d="M8.18444822,28.8555908 L8.12109375,28.8702393 C7.48864744,29.0196533 7.09680178,29.6531982 7.24584956,30.2856445 C7.37365725,30.8272705 7.8566895,31.192749 8.38989262,31.192749 C8.47961428,31.192749 8.57006831,31.1821289 8.66088862,31.1605224 L8.723877,31.145874 C9.3566895,30.9968261 9.74853516,30.3632813 9.59912109,29.7308349 C9.4504395,29.0987549 8.81689453,28.7069092 8.18444822,28.8555908 Z" id="Shape"></path>
                <path d="M24.4573974,15.7302246 L24.394043,15.7452393 C23.7615967,15.8935547 23.3693848,16.5267334 23.5177002,17.1595459 C23.6444092,17.7019042 24.1278076,18.067749 24.6621094,18.067749 C24.7507324,18.067749 24.8408203,18.0574951 24.9316406,18.0358886 L24.9946289,18.0212402 C25.6274414,17.8729248 26.0196533,17.2393799 25.8713379,16.6072998 C25.7230224,15.9748536 25.0894776,15.5819092 24.4573974,15.7302246 Z" id="Shape"></path>
                <path d="M1.17626953,9.66796875 C1.82666016,9.66796875 2.35290525,9.14135738 2.35290525,8.49169922 L2.35290525,2.38403325 L8.23828125,2.38403325 C8.88830569,2.38403325 9.41528325,1.85778806 9.41528325,1.20776363 C9.41528325,0.558105469 8.88830569,0.0311279063 8.23828125,0.0311279063 L1.17626953,0.0311279063 C0.526977563,0.0311279063 0,0.558105469 0,1.20776363 L0,8.49169922 C0,9.14135738 0.526977563,9.66796875 1.17626953,9.66796875 Z" id="Shape"></path>
                <path d="M58.8237305,0.0311279063 L51.7617187,0.0311279063 C51.1116943,0.0311279063 50.5847167,0.558105469 50.5847167,1.20776363 C50.5847167,1.85778806 51.1116943,2.38403325 51.7617187,2.38403325 L57.6470947,2.38403325 L57.6470947,8.49169922 C57.6470947,9.14135738 58.1733398,9.66796875 58.8237305,9.66796875 C59.4730224,9.66796875 60,9.14135738 60,8.49169922 L60,1.20776363 C60,0.558105469 59.4730224,0.0311279063 58.8237305,0.0311279063 Z" id="Shape"></path>
                <path d="M8.23828125,57.6276855 L2.35290525,57.6276855 L2.35290525,51.5203857 C2.35290525,50.8710937 1.82666016,50.3441162 1.17626953,50.3441162 C0.526977563,50.3441162 0,50.8710937 0,51.5203857 L0,58.8043213 C0,59.4539795 0.526977563,59.980957 1.17626953,59.980957 L8.23828125,59.980957 C8.88830569,59.980957 9.41528325,59.4539795 9.41528325,58.8043213 C9.41528325,58.1542969 8.88830569,57.6276855 8.23828125,57.6276855 Z" id="Shape"></path>
                <path d="M58.8237305,50.3441162 C58.1733398,50.3441162 57.6470947,50.8710938 57.6470947,51.5203857 L57.6470947,57.6276855 L51.7617187,57.6276855 C51.1116943,57.6276855 50.5847167,58.1542969 50.5847167,58.8043213 C50.5847167,59.4539795 51.1116943,59.980957 51.7617187,59.980957 L58.8237305,59.980957 C59.4730224,59.980957 60,59.4539795 60,58.8043213 L60,51.5203857 C60,50.8710938 59.4730224,50.3441162 58.8237305,50.3441162 Z" id="Shape"></path>
            </g>
        </g>
    </g>
</svg>