<?xml version="1.0"?>
<svg xmlns="http://www.w3.org/2000/svg" id="Layer_3" enable-background="new 0 0 64 64" height="512px" viewBox="0 0 64 64" width="512px"><g><path d="m42 2h4v10h-4z" fill="#aa8058" data-original="#AA8058"/><path d="m18 2h4v10h-4z" fill="#aa8058" data-original="#AA8058"/><g fill="#e3aa75"><path d="m14 2h4v10h-4z" data-original="#000000"/><path d="m46 2h4v10h-4z" data-original="#000000"/><path d="m22 2h20v10h-20z" data-original="#000000"/></g><path d="m58 22h4v8h-4z" fill="#9ab878" data-original="#9AB878"/><path d="m2 22h4v8h-4z" fill="#9ab878" data-original="#9AB878"/><path d="m4 50v-9.515c0-1.591.632-3.117 1.757-4.243l4.243-4.242v-16c0-2.209 1.791-4 4-4h36c2.209 0 4 1.791 4 4v16l4.243 4.243c1.125 1.125 1.757 2.651 1.757 4.242v9.515" fill="#738a5a" data-original="#738A5A"/><path d="m10 16v16l-4.243 4.243c-1.125 1.125-1.757 2.651-1.757 4.242v9.461l53 .054v-9.515c0-1.591-.632-3.117-1.757-4.243l-4.243-4.242v-16c0-2.209-1.791-4-4-4h-33c-2.209 0-4 1.791-4 4z" fill="#9ab878" data-original="#9AB878"/><path d="m20 46h24v4h-24z" fill="#aa8058" data-original="#AA8058"/><path d="m20 46h21v4h-21z" fill="#e3aa75" data-original="#E3AA75"/><path d="m20 42h24v4h-24z" fill="#aa8058" data-original="#AA8058"/><path d="m20 42h21v4h-21z" fill="#e3aa75" data-original="#E3AA75"/><path d="m20 38h24v4h-24z" fill="#aa8058" data-original="#AA8058"/><path d="m20 38h21v4h-21z" fill="#e3aa75" data-original="#E3AA75"/><path d="m2 50h60v6h-60z" fill="#aa8058" data-original="#AA8058"/><path d="m1 50h56v6h-56z" fill="#e3aa75" data-original="#E3AA75"/><path d="m22 50h20v6h-20z" fill="#bfbf73" data-original="#BFBF73"/><path d="m22 50h17v6h-17z" fill="#ff9" data-original="#FF9"/><circle cx="52" cy="42" fill="#bfbf73" r="4" data-original="#BFBF73"/><ellipse cx="50.5" cy="42" fill="#ff9" rx="2.5" ry="3.703" data-original="#FF9"/><circle cx="12" cy="42" fill="#bfbf73" r="4" data-original="#BFBF73"/><ellipse cx="10.5" cy="42" fill="#ff9" rx="2.5" ry="3.703" data-original="#FF9"/><path d="m10 18h44v14h-44z" fill="#93a7bf" data-original="#93A7BF"/><path d="m10 18h41v14h-41z" fill="#c4deff" data-original="#C4DEFF"/><path d="m56 62h-6c-1.105 0-2-.895-2-2v-4h10v4c0 1.105-.895 2-2 2z" fill="#717072" data-original="#717072"/><path d="m55 60v-4h-7v4c0 1.105.895 2 2 2h3c1.105 0 2-.895 2-2z" fill="#979598" data-original="#979598" class="active-path" style="fill:#979598" data-old_color="#979598"/><path d="m14 62h-6c-1.105 0-2-.895-2-2v-4h10v4c0 1.105-.895 2-2 2z" fill="#717072" data-original="#717072"/><path d="m13 60v-4h-7v4c0 1.105.895 2 2 2h3c1.105 0 2-.895 2-2z" fill="#979598" data-original="#979598" class="active-path" style="fill:#979598" data-old_color="#979598"/><path d="m14 63h-6c-1.654 0-3-1.346-3-3v-4h2v4c0 .551.448 1 1 1h6c.552 0 1-.449 1-1v-4h2v4c0 1.654-1.346 3-3 3z" data-original="#000000"/><path d="m56 63h-6c-1.654 0-3-1.346-3-3v-4h2v4c0 .551.448 1 1 1h6c.552 0 1-.449 1-1v-4h2v4c0 1.654-1.346 3-3 3z" data-original="#000000"/><path d="m62 57h-60c-.553 0-1-.448-1-1v-6c0-.552.447-1 1-1h60c.553 0 1 .448 1 1v6c0 .552-.447 1-1 1zm-59-2h58v-4h-58z" data-original="#000000"/><path d="m21 50h2v6h-2z" data-original="#000000"/><path d="m41 50h2v6h-2z" data-original="#000000"/><path d="m61 50h-2v-9.515c0-1.336-.521-2.592-1.465-3.535l-4.242-4.243c-.188-.187-.293-.442-.293-.707v-16c0-1.654-1.346-3-3-3h-36c-1.654 0-3 1.346-3 3v16c0 .265-.105.52-.293.707l-4.242 4.243c-.944.944-1.465 2.199-1.465 3.535v9.515h-2v-9.515c0-1.871.729-3.628 2.051-4.95l3.949-3.949v-15.586c0-2.757 2.243-5 5-5h36c2.757 0 5 2.243 5 5v15.586l3.949 3.95c1.322 1.321 2.051 3.079 2.051 4.949z" data-original="#000000"/><path d="m10 31h44v2h-44z" data-original="#000000"/><path d="m45 50h-2v-11h-22v11h-2v-12c0-.552.447-1 1-1h24c.553 0 1 .448 1 1z" data-original="#000000"/><path d="m12 47c-2.757 0-5-2.243-5-5s2.243-5 5-5 5 2.243 5 5-2.243 5-5 5zm0-8c-1.654 0-3 1.346-3 3s1.346 3 3 3 3-1.346 3-3-1.346-3-3-3z" data-original="#000000"/><path d="m52 47c-2.757 0-5-2.243-5-5s2.243-5 5-5 5 2.243 5 5-2.243 5-5 5zm0-8c-1.654 0-3 1.346-3 3s1.346 3 3 3 3-1.346 3-3-1.346-3-3-3z" data-original="#000000"/><path d="m20 41h24v2h-24z" data-original="#000000"/><path d="m20 45h24v2h-24z" data-original="#000000"/><path d="m51 12h-2v-9h-34v9h-2v-10c0-.552.447-1 1-1h36c.553 0 1 .448 1 1z" data-original="#000000"/><path d="m17 2h2v10h-2z" data-original="#000000"/><path d="m21 2h2v10h-2z" data-original="#000000"/><path d="m41 2h2v10h-2z" data-original="#000000"/><path d="m45 2h2v10h-2z" data-original="#000000"/><path d="m10 17h44v2h-44z" data-original="#000000"/><path d="m13 27h14v2h-14z" data-original="#000000"/><path d="m19 28h2v4h-2z" data-original="#000000"/><path d="m37 27h14v2h-14z" data-original="#000000"/><path d="m43 28h2v4h-2z" data-original="#000000"/><path d="m61 22h-2v-2c0-.551-.448-1-1-1h-4v-2h4c1.654 0 3 1.346 3 3z" data-original="#000000"/><path d="m62 31h-4c-.553 0-1-.448-1-1v-8c0-.552.447-1 1-1h4c.553 0 1 .448 1 1v8c0 .552-.447 1-1 1zm-3-2h2v-6h-2z" data-original="#000000"/><path d="m5 22h-2v-2c0-1.654 1.346-3 3-3h4v2h-4c-.552 0-1 .449-1 1z" data-original="#000000"/><path d="m6 31h-4c-.553 0-1-.448-1-1v-8c0-.552.447-1 1-1h4c.553 0 1 .448 1 1v8c0 .552-.447 1-1 1zm-3-2h2v-6h-2z" data-original="#000000"/></g> </svg>
