<?xml version="1.0" encoding="UTF-8"?>
<svg width="240px" height="240px" viewBox="0 0 240 240" version="1.1" xmlns="http://www.w3.org/2000/svg" xmlns:xlink="http://www.w3.org/1999/xlink">
    <g id="LogiTrack-Mobile-App-V3" stroke="none" stroke-width="1" fill="none" fill-rule="evenodd">
        <g id="10.-Profile" transform="translate(-49.000000, -276.000000)" fill="#555F6E" fill-rule="nonzero">
            <g id="user-(1)" transform="translate(49.000000, 276.000000)">
                <path d="M119.998,0 C53.7256954,0 0,53.7269373 0,119.9988 C0,186.269063 53.7256954,240 119.998,240 C186.270305,240 240,186.269063 240,119.9988 C240,53.7253373 186.270305,0 119.998,0 Z M120.363606,176.612166 L120.363606,176.610566 L119.630794,176.610566 L68.3723395,176.610566 C68.3723395,139.125391 101.294488,139.134191 108.60021,129.332493 L109.436224,124.862849 C99.1720529,119.661197 91.9263321,107.120271 91.9263321,92.4529245 C91.9263321,73.1295313 104.496142,57.4621746 119.998,57.4621746 C135.499858,57.4621746 148.069668,73.1295313 148.069668,92.4529245 C148.069668,106.99547 140.952749,119.457995 130.82538,124.742047 L131.777396,129.821298 C139.79273,139.147791 171.61966,139.755798 171.61966,176.612166 L120.363606,176.612166 Z" id="Shape"></path>
            </g>
        </g>
    </g>
</svg>